<svg xmlns="http://www.w3.org/2000/svg" version="1.1" xmlns:xlink="http://www.w3.org/1999/xlink" xmlns:svgjs="http://svgjs.dev/svgjs" width="1440" height="560" preserveAspectRatio="none" viewBox="0 0 1440 560"><g mask="url(&quot;#SvgjsMask1095&quot;)" fill="none"><path d="M -1003.5418732101913,356 C -859.54,296.2 -571.54,21.4 -283.5418732101913,57 C 4.46,92.6 148.46,505 436.4581267898087,534 C 724.46,563 955.75,250.2 1156.4581267898088,202 C 1357.17,153.8 1383.29,274.8 1440,293" stroke="rgba(222, 53, 81, 1)" stroke-width="2"></path><path d="M -168.10806353521548,408 C -24.11,343 263.89,77.2 551.8919364647845,83 C 839.89,88.8 983.89,417.6 1271.8919364647845,437 C 1559.89,456.4 1958.27,192.6 1991.8919364647845,180 C 2025.51,167.4 1550.38,335.2 1440,374" stroke="rgba(222, 53, 81, 1)" stroke-width="2"></path><path d="M -84.53481990741193,374 C 59.47,332 347.47,152.2 635.4651800925881,164 C 923.47,175.8 1067.47,449.2 1355.465180092588,433 C 1643.47,416.8 2058.56,107 2075.465180092588,83 C 2092.37,59 1567.09,267 1440,313" stroke="rgba(222, 53, 81, 1)" stroke-width="2"></path><path d="M -370.64188969622876,180 C -226.64,239.8 61.36,470.2 349.35811030377124,479 C 637.36,487.8 781.36,223.8 1069.3581103037714,224 C 1357.36,224.2 1715.23,502.8 1789.3581103037714,480 C 1863.49,457.2 1509.87,184 1440,110" stroke="rgba(222, 53, 81, 1)" stroke-width="2"></path><path d="M -303.51802873039384,181 C -159.52,205 128.48,282.6 416.48197126960616,301 C 704.48,319.4 848.48,236.2 1136.4819712696062,273 C 1424.48,309.8 1795.78,505.2 1856.4819712696062,485 C 1917.19,464.8 1523.3,234.6 1440,172" stroke="rgba(222, 53, 81, 1)" stroke-width="2"></path><path d="M -1353.3121239069073,222 C -1209.31,277 -921.31,496.6 -633.3121239069072,497 C -345.31,497.4 -201.31,247 86.68787609309277,224 C 374.69,201 536.03,376.8 806.6878760930928,382 C 1077.35,387.2 1313.34,276.4 1440,250" stroke="rgba(222, 53, 81, 1)" stroke-width="2"></path><path d="M -484.28529203655705,385 C -340.29,353.8 -52.29,228.2 235.71470796344292,229 C 523.71,229.8 667.71,420.6 955.714707963443,389 C 1243.71,357.4 1578.86,87 1675.7147079634428,71 C 1772.57,55 1487.14,261.4 1440,309" stroke="rgba(222, 53, 81, 1)" stroke-width="2"></path><path d="M -157.74195544776308,185 C -13.74,255.8 274.26,567.8 562.2580445522369,539 C 850.26,510.2 994.26,55.2 1282.258044552237,41 C 1570.26,26.8 1970.71,425.6 2002.258044552237,468 C 2033.81,510.4 1552.45,296 1440,253" stroke="rgba(222, 53, 81, 1)" stroke-width="2"></path><path d="M -166.50518449241747,303 C -22.51,247.8 265.49,30.2 553.4948155075825,27 C 841.49,23.8 985.49,280.6 1273.4948155075826,287 C 1561.49,293.4 1960.19,29.6 1993.4948155075826,59 C 2026.8,88.4 1550.7,359 1440,434" stroke="rgba(222, 53, 81, 1)" stroke-width="2"></path><path d="M -1123.399401342877,26 C -979.4,128.8 -691.4,524 -403.39940134287684,540 C -115.4,556 28.6,136.2 316.60059865712316,106 C 604.6,75.8 811.92,371.2 1036.600598657123,389 C 1261.28,406.8 1359.32,233.8 1440,195" stroke="rgba(222, 53, 81, 1)" stroke-width="2"></path></g><defs><mask id="SvgjsMask1095"><rect width="1440" height="560" fill="#ffffff"></rect></mask></defs></svg>